<?xml version="1.0" encoding="UTF-8"?>
<svg id="Layer_2" data-name="Layer 2" xmlns="http://www.w3.org/2000/svg" viewBox="0 0 290.13 73.25">
  <defs>
    <style>
      .cls-1 {
        fill: #00bc60;
      }
    </style>
  </defs>
  <g id="Layer_1-2" data-name="Layer 1">
    <g>
      <path class="cls-1" d="M31.5,73.25c-9.32,0-16.87-2.46-22.64-7.38C2.95,60.94,0,53.92,0,44.8V1.57h19.69v43.42c0,3.68,1.03,6.5,3.1,8.47,2.07,1.97,4.97,2.95,8.71,2.95s6.65-.99,8.71-2.95c2.07-1.97,3.1-4.79,3.1-8.47V1.57h19.69v43.22c0,9.25-2.86,16.31-8.57,21.17-5.78,4.86-13.42,7.28-22.94,7.28Z"/>
      <path class="cls-1" d="M104.85,73.25c-10.9,0-19.59-3.31-26.09-9.94-6.56-6.56-9.85-15.46-9.85-26.68s3.22-20.15,9.65-26.78c6.37-6.56,15.13-9.85,26.29-9.85,8.99,0,16.67,2.43,23.04,7.29,6.23,4.92,10.01,11.72,11.32,20.38h-19.89c-.92-3.48-2.66-6.15-5.22-8.02-2.56-1.87-5.65-2.81-9.25-2.81-5.06,0-8.89,1.71-11.52,5.12-2.63,3.41-3.94,8.3-3.94,14.67s1.31,11.26,3.94,14.67c2.62,3.41,6.46,5.12,11.52,5.12,3.94,0,7.2-1.07,9.8-3.2,2.59-2.13,4.25-5.14,4.97-9.01h19.69c-1.12,9.19-4.79,16.31-11.03,21.36-6.3,5.12-14.11,7.68-23.43,7.68Z"/>
      <path class="cls-1" d="M174.06,73.25c-10.04,0-17.77-2.2-23.19-6.6-5.41-4.4-8.12-10.4-8.12-18.02h18.9c.06,3.68,1.15,6.2,3.25,7.58,2.1,1.38,5.42,2.07,9.94,2.07,6.56,0,9.85-2.1,9.85-6.3,0-1.97-.76-3.41-2.27-4.33-1.51-.92-4.43-1.74-8.76-2.46l-5.51-.89c-16.21-2.62-24.32-10.17-24.32-22.64,0-6.63,2.48-11.9,7.43-15.8,4.95-3.9,12.06-5.86,21.31-5.86s16.54,1.95,21.66,5.86c5.12,3.91,7.88,9.67,8.27,17.28h-18.51c-.13-2.82-1.08-4.89-2.85-6.2-1.77-1.31-4.53-1.97-8.27-1.97-5.97,0-8.96,1.94-8.96,5.81,0,1.97.75,3.45,2.27,4.43,1.51.98,4.17,1.81,7.97,2.46l5.81.98c8.73,1.44,15.08,3.89,19.05,7.33,3.97,3.45,5.96,8.29,5.96,14.52,0,7.42-2.72,13.06-8.17,16.93-5.45,3.87-13.03,5.81-22.74,5.81Z"/>
      <path class="cls-1" d="M253.31,28.16l6.69-26.58h30.13v70.1h-18.71v-19.89c0-12.86.2-23.79.59-32.78-1.44,5.78-2.82,10.96-4.14,15.56l-10.14,37.12h-15.95l-10.14-37.12c-1.31-4.59-2.69-9.78-4.14-15.56.39,8.99.59,19.92.59,32.78v19.89h-18.7V1.57h30.13l6.69,26.58c1.71,6.83,2.89,11.85,3.54,15.06.66-3.21,1.84-8.24,3.54-15.06Z"/>
    </g>
  </g>
</svg>